<?xml version="1.0" standalone="no"?>
<!DOCTYPE svg PUBLIC "-//W3C//DTD SVG 20010904//EN"
 "http://www.w3.org/TR/2001/REC-SVG-20010904/DTD/svg10.dtd">
<svg version="1.0" xmlns="http://www.w3.org/2000/svg"
 width="1600.000000pt" height="817.000000pt" viewBox="0 0 1600.000000 817.000000"
 preserveAspectRatio="xMidYMid meet">

<g transform="translate(0.000000,817.000000) scale(0.100000,-0.100000)"
fill="#000000" stroke="none">
<path d="M5910 5528 c-934 -1407 -1103 -1657 -1111 -1652 -8 5 -153 183 -244
300 -179 229 -419 522 -426 518 -4 -2 -194 -240 -421 -527 -227 -287 -458
-579 -513 -648 -55 -69 -181 -229 -280 -354 -99 -126 -234 -297 -300 -380 -66
-83 -185 -234 -265 -335 -80 -101 -153 -194 -163 -207 l-18 -23 1556 0 1557 0
-6 28 c-10 41 -74 258 -226 767 -195 652 -242 816 -237 821 4 4 62 -62 102
-117 11 -15 92 -116 180 -225 88 -108 180 -222 205 -254 25 -32 182 -228 350
-436 167 -209 340 -425 385 -481 l80 -102 448 0 c246 -1 447 2 447 6 0 3 -63
207 -140 452 -186 595 -180 573 -170 569 9 -3 222 -194 395 -353 55 -51 195
-179 311 -286 115 -107 259 -238 319 -291 l109 -98 457 0 c252 0 460 3 462 8
4 6 113 566 180 927 l23 120 304 0 c296 0 307 -1 367 -23 78 -30 136 -80 170
-146 35 -66 40 -177 23 -488 -12 -223 -6 -336 19 -377 7 -10 61 -13 261 -13
139 1 254 3 256 5 3 3 -5 21 -17 41 -30 52 -34 157 -15 427 19 268 20 350 5
421 -28 134 -113 241 -237 299 -39 19 -72 37 -72 41 0 3 15 10 33 13 58 13
194 72 249 108 139 93 240 238 273 393 22 101 19 274 -5 367 -32 128 -74 201
-170 297 -95 96 -177 143 -316 182 -77 22 -92 23 -714 26 l-635 3 -93 -488
c-209 -1090 -297 -1533 -304 -1531 -6 3 -422 626 -1279 1918 -191 289 -426
642 -521 784 -95 142 -202 302 -237 355 -35 53 -66 99 -70 104 -4 4 -149 -205
-321 -465z m3905 -1109 c148 -27 226 -109 244 -257 24 -190 -45 -337 -193
-411 -105 -54 -166 -61 -515 -61 l-313 0 5 23 c3 12 36 178 73 370 l68 347
286 0 c164 0 312 -5 345 -11z"/>
<path d="M12875 4908 c-27 -77 -250 -839 -247 -843 3 -3 64 -5 135 -5 124 0
132 1 164 26 137 104 323 105 420 3 103 -110 74 -356 -53 -453 -67 -52 -130
-69 -228 -64 -62 3 -92 10 -126 29 -53 29 -107 104 -116 160 l-7 39 -155 0
-155 0 7 -57 c19 -158 75 -253 200 -334 84 -56 199 -90 321 -96 336 -18 604
162 681 458 25 94 22 255 -5 341 -24 74 -88 168 -144 211 -156 119 -403 126
-562 17 -25 -18 -48 -30 -50 -28 -1 1 20 80 49 173 l52 170 360 3 361 2 22
113 c12 61 24 120 27 130 5 16 -22 17 -471 17 -371 0 -477 -3 -480 -12z"/>
<path d="M11395 4144 c-38 -9 -104 -29 -147 -45 -305 -118 -565 -452 -643
-827 -33 -159 -28 -372 11 -527 18 -73 91 -226 131 -276 79 -99 232 -202 371
-250 252 -87 604 -52 828 82 177 106 291 248 381 477 4 9 -48 12 -239 12
l-245 0 -18 -40 c-24 -52 -112 -135 -171 -161 -78 -33 -181 -45 -271 -31 -92
15 -144 38 -197 89 -66 64 -95 145 -111 316 l-7 67 661 0 c522 0 661 3 661 13
0 6 5 63 11 126 20 216 -19 453 -101 610 -95 183 -239 297 -443 353 -100 27
-363 34 -462 12z m307 -380 c132 -37 228 -187 228 -355 l0 -39 -405 0 c-330 0
-405 2 -405 13 0 27 52 142 90 197 66 97 147 157 250 186 65 18 174 17 242 -2z"/>
</g>
</svg>
